<?xml version="1.0" encoding="UTF-8"?>
<svg id="Layer_1" data-name="Layer 1" xmlns="http://www.w3.org/2000/svg" viewBox="0 0 560.08 239.65">
  <defs>
    <style>
      .cls-1 {
        fill: #fff;
      }

      .cls-2 {
        fill: none;
      }
    </style>
  </defs>
  <rect class="cls-2" width="560.08" height="239.65"/>
  <path class="cls-1" d="M141.6,79.88c-.3,3.54-.51,6.96-.62,10.27-.11,3.31-.17,5.83-.17,7.56,0,1.51.04,2.97.11,4.4.07,1.43.15,2.6.23,3.5h-2.59c-.83-5.87-2.16-10.49-4.01-13.88-1.84-3.38-4.1-5.77-6.77-7.17-2.67-1.39-5.62-2.09-8.86-2.09h-3.05c-2.11,0-3.69.17-4.74.51-1.05.34-1.75,1.03-2.09,2.09-.34,1.05-.51,2.71-.51,4.96v59.57c0,2.18.17,3.82.51,4.91.34,1.09,1.03,1.81,2.09,2.14,1.05.34,2.63.51,4.74.51h4.63c2.93,0,5.73-.77,8.41-2.31,2.67-1.54,5.06-4.17,7.16-7.9,2.11-3.72,3.68-8.78,4.74-15.17h2.59c-.23,2.56-.34,5.87-.34,9.93,0,1.8.04,4.36.11,7.67.07,3.31.3,6.77.68,10.38-3.84-.15-8.16-.24-12.98-.28-4.81-.04-9.1-.06-12.86-.06h-7.45c-3.01,0-6.28.02-9.82.06-3.54.04-7.11.08-10.72.11-3.61.04-7,.1-10.15.17v-2.26c2.33-.15,4.08-.45,5.25-.9,1.17-.45,1.96-1.35,2.37-2.71.41-1.35.62-3.38.62-6.09v-55.96c0-2.78-.21-4.83-.62-6.15-.41-1.31-1.2-2.22-2.37-2.71-1.17-.49-2.92-.77-5.25-.85v-2.26c3.23.07,6.64.13,10.21.17,3.57.04,7.13.08,10.66.11,3.53.04,6.81.06,9.82.06h7.45c3.46,0,7.39-.02,11.79-.06,4.4-.04,8.33-.13,11.79-.28ZM124.56,118.47v2.26h-19.41v-2.26h19.41ZM127.83,103.58c-.3,4.29-.43,7.56-.4,9.82.04,2.26.06,4.33.06,6.21s.04,3.95.11,6.21c.07,2.26.26,5.53.56,9.82h-2.59c-.38-2.71-1.17-5.19-2.37-7.45-1.2-2.26-2.82-4.06-4.85-5.42-2.03-1.35-4.51-2.03-7.45-2.03v-2.26c2.18,0,4.1-.47,5.75-1.41,1.65-.94,3.06-2.16,4.23-3.67,1.17-1.5,2.12-3.12,2.88-4.85.75-1.73,1.24-3.38,1.47-4.96h2.6Z"/>
  <path class="cls-1" d="M191.53,107.96v2.1c-1.27.4-2.47,1.23-3.6,2.5-1.13,1.27-2.27,3.47-3.4,6.6l-14.1,40.7c-1.33-.13-2.67-.2-4-.2s-2.7.07-4.1.2l-17.6-44.2c-1-2.53-2.03-4.1-3.1-4.7-1.07-.6-1.97-.9-2.7-.9v-2.1c2.4.13,4.9.25,7.5.35,2.6.1,5.43.15,8.5.15,2.07,0,4.25-.05,6.55-.15,2.3-.1,4.45-.22,6.45-.35v2.1c-1.27,0-2.42.07-3.45.2-1.03.13-1.77.5-2.2,1.1-.43.6-.42,1.7.05,3.3l11.4,31.1-1.1,1.7,6.7-19.3c1.4-4.07,2-7.4,1.8-10-.2-2.6-.95-4.57-2.25-5.9-1.3-1.33-3.02-2.07-5.15-2.2v-2.1c1,.07,2.12.13,3.35.2,1.23.07,2.47.12,3.7.15,1.23.03,2.25.05,3.05.05,1.27,0,2.67-.03,4.2-.1,1.53-.07,2.7-.17,3.5-.3Z"/>
  <path class="cls-1" d="M215.53,106.86v43.6c0,2.8.45,4.7,1.35,5.7s2.45,1.5,4.65,1.5v2.1c-1.27-.07-3.22-.15-5.85-.25-2.63-.1-5.28-.15-7.95-.15s-5.38.05-8.15.15c-2.77.1-4.85.18-6.25.25v-2.1c2.2,0,3.75-.5,4.65-1.5.9-1,1.35-2.9,1.35-5.7v-31.6c0-3-.42-5.22-1.25-6.65-.83-1.43-2.42-2.15-4.75-2.15v-2.1c2.13.2,4.2.3,6.2.3,3,0,5.85-.12,8.55-.35,2.7-.23,5.18-.58,7.45-1.05ZM206.73,81.86c3.13,0,5.58.7,7.35,2.1,1.77,1.4,2.65,3.43,2.65,6.1s-.88,4.7-2.65,6.1c-1.77,1.4-4.22,2.1-7.35,2.1s-5.58-.7-7.35-2.1c-1.77-1.4-2.65-3.43-2.65-6.1s.88-4.7,2.65-6.1c1.77-1.4,4.22-2.1,7.35-2.1Z"/>
  <path class="cls-1" d="M242.53,106.56c2.93,0,5.47.42,7.6,1.25,2.13.83,3.9,2.22,5.3,4.15l-1.2,1c-.87-1.13-1.92-1.97-3.15-2.5-1.23-.53-2.52-.8-3.85-.8-3.2,0-5.68,1.98-7.45,5.95-1.77,3.97-2.65,10.05-2.65,18.25,0,5.73.35,10.25,1.05,13.55.7,3.3,1.67,5.62,2.9,6.95,1.23,1.33,2.62,2,4.15,2,2.07,0,3.92-.78,5.55-2.35,1.63-1.57,2.48-3.65,2.55-6.25l.3,4.2c-1.2,3.07-2.85,5.37-4.95,6.9-2.1,1.53-4.78,2.3-8.05,2.3-3.87,0-7.35-.97-10.45-2.9s-5.53-4.92-7.3-8.95c-1.77-4.03-2.65-9.28-2.65-15.75,0-6.07.95-11.08,2.85-15.05,1.9-3.97,4.53-6.95,7.9-8.95,3.37-2,7.22-3,11.55-3ZM269.43,81.56v67.2c0,3,.45,5.22,1.35,6.65.9,1.43,2.45,2.15,4.65,2.15v2.1c-2.07-.2-4.13-.3-6.2-.3-3,0-5.83.1-8.5.3-2.67.2-5.17.57-7.5,1.1v-67.2c0-3-.42-5.22-1.25-6.65-.83-1.43-2.42-2.15-4.75-2.15v-2.1c2.13.2,4.2.3,6.2.3,3.07,0,5.93-.12,8.6-.35,2.67-.23,5.13-.58,7.4-1.05Z"/>
  <path class="cls-1" d="M301.98,106.56c6.45,0,11.51,1.73,15.18,5.2,3.67,3.47,5.5,9.17,5.5,17.1h-35.31l-.11-1.9h20.46c.15-3.27,0-6.28-.44-9.05-.44-2.77-1.16-4.98-2.14-6.65-.99-1.67-2.29-2.5-3.91-2.5-2.2,0-4.07,1.43-5.61,4.3-1.54,2.87-2.49,7.73-2.86,14.6l.44.7c-.15.73-.22,1.48-.22,2.25v2.45c0,4.6.68,8.27,2.04,11,1.36,2.73,3.06,4.67,5.11,5.8,2.05,1.13,4.18,1.7,6.38,1.7,1.25,0,2.64-.17,4.18-.5,1.54-.33,3.15-1.03,4.84-2.1,1.69-1.07,3.3-2.63,4.84-4.7l1.87.6c-.81,2.6-2.18,5.15-4.12,7.65s-4.42,4.57-7.42,6.2c-3.01,1.63-6.64,2.45-10.89,2.45-4.84,0-9.17-.92-12.98-2.75-3.81-1.83-6.84-4.73-9.08-8.7-2.24-3.97-3.35-9.15-3.35-15.55s1.21-11.53,3.63-15.6c2.42-4.07,5.72-7.08,9.9-9.05,4.18-1.97,8.87-2.95,14.08-2.95Z"/>
  <path class="cls-1" d="M359.52,106.56c2.93,0,5.28.37,7.05,1.1,1.77.73,3.12,1.67,4.05,2.8,1.07,1.27,1.85,2.9,2.35,4.9s.75,4.7.75,8.1v27c0,2.8.45,4.7,1.35,5.7.9,1,2.45,1.5,4.65,1.5v2.1c-1.33-.07-3.32-.15-5.95-.25-2.63-.1-5.18-.15-7.65-.15-2.73,0-5.37.05-7.9.15-2.53.1-4.43.18-5.7.25v-2.1c1.87,0,3.17-.5,3.9-1.5.73-1,1.1-2.9,1.1-5.7v-31.8c0-1.53-.17-2.85-.5-3.95-.33-1.1-.9-1.93-1.7-2.5-.8-.57-1.93-.85-3.4-.85s-2.95.4-4.25,1.2-2.33,1.92-3.1,3.35c-.77,1.43-1.15,3.05-1.15,4.85v29.7c0,2.8.37,4.7,1.1,5.7.73,1,2.03,1.5,3.9,1.5v2.1c-1.27-.07-3.1-.15-5.5-.25-2.4-.1-4.83-.15-7.3-.15-2.73,0-5.47.05-8.2.15-2.73.1-4.8.18-6.2.25v-2.1c2.2,0,3.75-.5,4.65-1.5.9-1,1.35-2.9,1.35-5.7v-31.6c0-3-.43-5.22-1.3-6.65-.87-1.43-2.43-2.15-4.7-2.15v-2.1c2.13.2,4.2.3,6.2.3,3,0,5.85-.12,8.55-.35,2.7-.23,5.18-.58,7.45-1.05v8.1c1.6-3.07,3.78-5.23,6.55-6.5,2.77-1.27,5.95-1.9,9.55-1.9Z"/>
  <path class="cls-1" d="M404.64,90.55c3.97,0,7.04.4,9.22,1.2,2.17.8,4.03,1.65,5.57,2.54.77.45,1.39.79,1.87,1.01.48.22.94.34,1.39.34.64,0,1.1-.35,1.39-1.06.29-.7.53-1.76.72-3.17h2.21c-.06,1.28-.14,2.78-.24,4.51-.1,1.73-.16,4.02-.19,6.86-.03,2.85-.05,6.61-.05,11.28h-2.21c-.26-3.46-1.06-6.78-2.4-9.98-1.34-3.2-3.18-5.86-5.52-7.97-2.34-2.11-5.2-3.17-8.59-3.17-2.94,0-5.38.82-7.3,2.45s-2.88,3.95-2.88,6.96c0,2.43.61,4.53,1.82,6.29,1.21,1.76,3.05,3.54,5.52,5.33,2.46,1.79,5.58,4,9.36,6.62,3.01,1.98,5.7,3.97,8.06,5.95,2.37,1.98,4.27,4.22,5.71,6.72,1.44,2.5,2.16,5.5,2.16,9.02,0,4.22-1.15,7.73-3.46,10.51-2.3,2.78-5.34,4.86-9.12,6.24-3.78,1.38-7.9,2.06-12.38,2.06-4.16,0-7.47-.38-9.94-1.15-2.46-.77-4.56-1.57-6.29-2.4-1.41-.9-2.5-1.34-3.26-1.34-.64,0-1.1.35-1.39,1.06-.29.71-.53,1.76-.72,3.17h-2.21c.13-1.6.21-3.47.24-5.62.03-2.14.06-4.91.1-8.3.03-3.39.05-7.71.05-12.96h2.21c.25,4.35.97,8.42,2.16,12.19,1.18,3.78,3.01,6.83,5.47,9.17,2.46,2.34,5.74,3.5,9.84,3.5,2.3,0,4.32-.38,6.05-1.15,1.73-.77,3.1-1.9,4.13-3.41,1.02-1.5,1.54-3.34,1.54-5.52,0-2.69-.61-5.02-1.82-7.01-1.22-1.98-2.88-3.85-4.99-5.62-2.11-1.76-4.58-3.54-7.39-5.33-3.01-1.98-5.82-4-8.45-6.05-2.62-2.05-4.72-4.33-6.29-6.86-1.57-2.53-2.35-5.58-2.35-9.17,0-4.09,1.06-7.46,3.17-10.08,2.11-2.62,4.91-4.56,8.4-5.81,3.49-1.25,7.18-1.87,11.09-1.87Z"/>
  <path class="cls-1" d="M459.51,106.56c6.45,0,11.51,1.73,15.18,5.2,3.67,3.47,5.5,9.17,5.5,17.1h-35.31l-.11-1.9h20.46c.15-3.27,0-6.28-.44-9.05-.44-2.77-1.16-4.98-2.14-6.65-.99-1.67-2.29-2.5-3.91-2.5-2.2,0-4.07,1.43-5.61,4.3-1.54,2.87-2.49,7.73-2.86,14.6l.44.7c-.15.73-.22,1.48-.22,2.25v2.45c0,4.6.68,8.27,2.04,11,1.36,2.73,3.06,4.67,5.12,5.8,2.05,1.13,4.18,1.7,6.38,1.7,1.25,0,2.64-.17,4.18-.5,1.54-.33,3.15-1.03,4.84-2.1,1.69-1.07,3.3-2.63,4.84-4.7l1.87.6c-.81,2.6-2.18,5.15-4.12,7.65-1.94,2.5-4.42,4.57-7.42,6.2-3.01,1.63-6.64,2.45-10.89,2.45-4.84,0-9.17-.92-12.98-2.75-3.81-1.83-6.84-4.73-9.08-8.7-2.24-3.97-3.35-9.15-3.35-15.55s1.21-11.53,3.63-15.6c2.42-4.07,5.72-7.08,9.9-9.05,4.18-1.97,8.87-2.95,14.08-2.95Z"/>
</svg>